<svg width="102" height="16" viewBox="0 0 102 16" fill="none" xmlns="http://www.w3.org/2000/svg">
<path d="M101 9C101.552 9 102 8.55228 102 8C102 7.44772 101.552 7 101 7L101 9ZM0.292893 7.29288C-0.0976333 7.68341 -0.0976334 8.31657 0.292892 8.7071L6.65685 15.0711C7.04738 15.4616 7.68054 15.4616 8.07107 15.0711C8.46159 14.6805 8.46159 14.0474 8.07107 13.6568L2.41422 7.99999L8.07107 2.34314C8.46159 1.95261 8.46159 1.31945 8.07107 0.928924C7.68054 0.5384 7.04738 0.5384 6.65685 0.928924L0.292893 7.29288ZM101 7L1 6.99999L1 8.99999L101 9L101 7Z" fill="#0E2A3F"/>
</svg>
