<svg width="68" height="68" viewBox="0 0 68 68" fill="none" xmlns="http://www.w3.org/2000/svg">
<g clip-path="url(#clip0_1318_681)">
<path d="M34 2.8335V65.1668" stroke="white" stroke-width="6" stroke-linecap="round" stroke-linejoin="round"/>
<path d="M48.1667 14.1665H26.9167C24.2866 14.1665 21.7643 15.2113 19.9045 17.071C18.0448 18.9308 17 21.4531 17 24.0832C17 26.7132 18.0448 29.2356 19.9045 31.0953C21.7643 32.955 24.2866 33.9998 26.9167 33.9998H41.0833C43.7134 33.9998 46.2357 35.0446 48.0955 36.9044C49.9552 38.7641 51 41.2864 51 43.9165C51 46.5466 49.9552 49.0689 48.0955 50.9287C46.2357 52.7884 43.7134 53.8332 41.0833 53.8332H17" stroke="white" stroke-width="6" stroke-linecap="round" stroke-linejoin="round"/>
</g>
<defs>
<clipPath id="clip0_1318_681">
<rect width="68" height="68" fill="white"/>
</clipPath>
</defs>
</svg>
