<svg width="103" height="69" viewBox="0 0 103 69" fill="none" xmlns="http://www.w3.org/2000/svg">
<path d="M13.4109 34.6899L19.9542 42.4088C19.9542 42.4088 44.931 62.0025 52.4952 63.3792C60.0594 64.756 62.6943 60.1721 62.6943 60.1721C62.6943 60.1721 67.8505 59.8266 68.7683 58.223C69.6861 56.6194 70.2585 54.098 70.2585 54.098C70.2585 54.098 74.3835 54.4435 75.0692 51.4632L75.755 48.4829C75.755 48.4829 79.7666 49.0552 81.0247 46.8793C82.2828 44.7033 82.4014 42.1819 77.7041 38.9747C73.0067 35.7676 70.5988 33.3235 63.8389 28.8169C57.0791 24.3104 47.2255 18.9737 42.9871 17.401C38.7487 15.8284 34.7371 15.7459 32.2157 15.1013C29.6943 14.4568 26.4356 11.9612 26.4356 11.9612" stroke="white" stroke-width="4" stroke-linecap="round" stroke-linejoin="round"/>
<path d="M2 33.8135C2.30422 33.8908 10.7089 39.542 10.7862 39.3152C10.8636 39.0883 28.6578 8.07349 28.6578 8.07349L19.722 2.57178L2 33.8135Z" stroke="white" stroke-width="4" stroke-linecap="round" stroke-linejoin="round"/>
<path d="M27.1123 38.7514L26.7818 38.5315C24.878 37.2647 22.3078 37.7811 21.041 39.6849L18.8016 43.0504C17.5348 44.9542 18.0512 47.5244 19.955 48.7912L20.2855 49.0111C22.1893 50.2779 24.7595 49.7615 26.0263 47.8577L28.2657 44.4922C29.5325 42.5885 29.0161 40.0182 27.1123 38.7514Z" fill="#0E2A3F" stroke="white" stroke-width="4" stroke-linecap="round" stroke-linejoin="round"/>
<path d="M48.7887 53.5578L48.4582 53.3379C46.5544 52.0711 43.9842 52.5875 42.7174 54.4913L39.2211 59.7456C37.9544 61.6494 38.4708 64.2196 40.3745 65.4864L40.7051 65.7063C42.6088 66.9731 45.1791 66.4567 46.4458 64.5529L49.9421 59.2986C51.2089 57.3949 50.6925 54.8246 48.7887 53.5578Z" fill="#0E2A3F" stroke="white" stroke-width="4" stroke-linecap="round" stroke-linejoin="round"/>
<path d="M43.789 45.2009L43.4584 44.981C41.5547 43.7142 38.9844 44.2306 37.7176 46.1343L31.7877 55.0461C30.5209 56.9499 31.0373 59.5201 32.9411 60.7869L33.2716 61.0068C35.1754 62.2736 37.7456 61.7572 39.0124 59.8534L44.9423 50.9417C46.2091 49.0379 45.6927 46.4677 43.789 45.2009Z" fill="#0E2A3F" stroke="white" stroke-width="4" stroke-linecap="round" stroke-linejoin="round"/>
<path d="M37.4149 38.9914L37.0844 38.7715C35.1806 37.5047 32.6104 38.0211 31.3436 39.9249L24.3825 50.3863C23.1158 52.2901 23.6321 54.8603 25.5359 56.1271L25.8664 56.347C27.7702 57.6138 30.3405 57.0974 31.6072 55.1937L38.5683 44.7322C39.8351 42.8284 39.3187 40.2582 37.4149 38.9914Z" fill="#0E2A3F" stroke="white" stroke-width="4" stroke-linecap="round" stroke-linejoin="round"/>
<path d="M52.4952 53.7527L62.6891 60.167" stroke="white" stroke-width="4" stroke-linecap="round" stroke-linejoin="round"/>
<path d="M56.1613 45.8069L70.2533 54.0981" stroke="white" stroke-width="4" stroke-linecap="round" stroke-linejoin="round"/>
<path d="M60.1316 38.4746L75.755 48.4829" stroke="white" stroke-width="4" stroke-linecap="round" stroke-linejoin="round"/>
<path d="M51.7117 21.1395L47.0711 22.4337C47.0711 22.4337 44.4723 25.6409 41.1878 27.7807C37.9033 29.9206 32.4016 30.6064 32.8605 27.7807C33.3194 24.9551 38.5117 17.8498 40.1153 15.942C41.7189 14.0342 42.0231 12.1212 50.5825 12.0439C59.1419 11.9665 60.7403 11.6623 66.3193 12.8844C71.8984 14.1064 74.3064 13.9517 76.7917 12.7297" fill="#0E2A3F"/>
<path d="M51.7117 21.1395L47.0711 22.4337C47.0711 22.4337 44.4723 25.6409 41.1878 27.7807C37.9033 29.9206 32.4016 30.6064 32.8605 27.7807C33.3194 24.9551 38.5117 17.8498 40.1153 15.942C41.7189 14.0342 42.0231 12.1212 50.5825 12.0439C59.1419 11.9665 60.7403 11.6623 66.3193 12.8844C71.8984 14.1064 74.3064 13.9517 76.7917 12.7297" stroke="white" stroke-width="4" stroke-linecap="round" stroke-linejoin="round"/>
<path d="M80.2566 41.1199C80.8341 40.6919 87.0319 36.9485 89.1717 34.5044L80.2566 41.1199Z" fill="#0E2A3F"/>
<path d="M80.2566 41.1199C80.8341 40.6919 87.0319 36.9485 89.1717 34.5044" stroke="white" stroke-width="4" stroke-linecap="round" stroke-linejoin="round"/>
<path d="M74.1875 8.14571L91.9095 39.3204L101 33.8135L83.3553 2.95337L74.1875 8.14571Z" fill="#0E2A3F" stroke="white" stroke-width="4" stroke-linecap="round" stroke-linejoin="round"/>
</svg>
