<svg width="133" height="70" viewBox="0 0 133 70" fill="none" xmlns="http://www.w3.org/2000/svg">
<path d="M0 56.5323V56.1679H0.673411C1.02828 56.1679 1.29094 56.0883 1.45999 55.9291C1.62904 55.77 1.71287 55.5131 1.71287 55.157V38.2616C1.71287 37.907 1.62904 37.6487 1.45999 37.4895C1.29094 37.3304 1.02968 37.2508 0.673411 37.2508H0V36.8864H8.95832V37.2508H7.86298C7.50671 37.2508 7.24545 37.3304 7.0764 37.4895C6.90735 37.6487 6.82352 37.9056 6.82352 38.2616V46.2605H14.3777V38.2616C14.3777 37.907 14.2883 37.6487 14.1109 37.4895C13.9335 37.3304 13.6666 37.2508 13.3103 37.2508H12.215V36.8864H21.1733V37.2508H20.4999C20.1436 37.2508 19.8866 37.3304 19.7273 37.4895C19.568 37.6487 19.4884 37.9056 19.4884 38.2616V55.157C19.4884 55.5131 19.568 55.77 19.7273 55.9291C19.8866 56.0883 20.1436 56.1679 20.4999 56.1679H21.1733V56.5323H12.215V56.1679H13.3103C13.6652 56.1679 13.9321 56.0883 14.1109 55.9291C14.2883 55.77 14.3777 55.5131 14.3777 55.157V46.71H6.82352V55.157C6.82352 55.5131 6.90735 55.77 7.0764 55.9291C7.24545 56.0883 7.50671 56.1679 7.86298 56.1679H8.95832V56.5323H0Z" fill="white"/>
<path d="M32.5766 56.8688C30.6109 56.8688 28.8603 56.4806 27.3249 55.7043C25.7894 54.928 24.5907 53.7818 23.7301 52.2669C22.8681 50.752 22.4377 48.9272 22.4377 46.7938C22.4377 44.6604 22.8736 42.8551 23.744 41.3207C24.6145 39.7863 25.8411 38.6079 27.4227 37.7841C29.0042 36.9618 30.8344 36.5499 32.9133 36.5499C34.8609 36.5499 36.6017 36.9422 38.1372 37.7283C39.6726 38.5143 40.8755 39.6648 41.7459 41.1797C42.6163 42.6946 43.0522 44.5096 43.0522 46.6249C43.0522 48.7401 42.6121 50.5635 41.7319 52.098C40.8518 53.6324 39.6209 54.8108 38.0394 55.6345C36.4564 56.4583 34.636 56.8688 32.5766 56.8688ZM32.6605 56.4764C33.7083 56.4764 34.5885 56.1637 35.301 55.5368C36.0121 54.9099 36.5598 53.9046 36.944 52.5196C37.3282 51.1346 37.5196 49.3391 37.5196 47.1317C37.5196 44.6995 37.3408 42.7351 36.9859 41.2383C36.6297 39.7416 36.1057 38.6526 35.4128 37.9684C34.7198 37.2857 33.8494 36.9436 32.8016 36.9436C31.7537 36.9436 30.8735 37.2578 30.161 37.8833C29.4499 38.5102 28.9022 39.5154 28.518 40.9004C28.1338 42.2855 27.9424 44.081 27.9424 46.2884C27.9424 48.7206 28.1254 50.685 28.4901 52.1817C28.8547 53.6784 29.3842 54.7689 30.0772 55.4516C30.7702 56.1344 31.6308 56.4764 32.6605 56.4764Z" fill="white"/>
<path d="M44.2313 56.5323V56.1679H44.9047C45.2414 56.1679 45.4985 56.0883 45.6773 55.9291C45.8548 55.77 45.9442 55.5131 45.9442 55.157V38.2616C45.9442 37.9433 45.8646 37.6962 45.7053 37.5175C45.546 37.3401 45.2792 37.2508 44.9047 37.2508H44.2313V36.8864H54.454C56.9255 36.8864 58.8256 37.2606 60.1557 38.0089C61.4843 38.7573 62.1494 40.0208 62.1494 41.7982C62.1494 43.1637 61.8448 44.2262 61.237 44.9829C60.6279 45.7411 59.7254 46.2702 58.5266 46.569C57.3279 46.8692 55.7366 47.0186 53.7527 47.0186H52.4883C52.9004 47.524 53.321 47.8465 53.7527 47.9862C54.183 48.1258 54.848 48.197 55.7464 48.197H58.2738L63.0198 55.2408C63.2251 55.541 63.4361 55.77 63.6513 55.9277C63.8664 56.0869 64.0872 56.1665 64.3107 56.1665H64.6474V56.5309H57.9636L52.0105 47.0172H51.0562V54.9308C51.0562 55.3232 51.154 55.6275 51.351 55.8426C51.548 56.0576 51.8791 56.1651 52.3486 56.1651H52.9661V56.5295H44.2327L44.2313 56.5323ZM53.2455 46.5969C54.4624 46.5969 55.3887 46.2423 56.0258 45.5302C56.6615 44.8196 56.98 43.6216 56.98 41.9378C56.98 40.7217 56.8445 39.7821 56.5735 39.1175C56.3024 38.4529 55.8805 37.9852 55.3091 37.7143C54.7376 37.4435 53.9469 37.308 52.9368 37.308H51.0548V46.5969H53.2455Z" fill="white"/>
<path d="M65.5458 56.5323V56.1679H66.2192C66.5741 56.1679 66.8367 56.0883 67.0058 55.9291C67.1748 55.77 67.2586 55.5131 67.2586 55.157V38.2616C67.2586 37.907 67.1748 37.6487 67.0058 37.4895C66.8367 37.3304 66.5755 37.2508 66.2192 37.2508H65.5458V36.8864H74.0556V37.2508H73.4102C73.0539 37.2508 72.7926 37.3304 72.6236 37.4895C72.4545 37.6487 72.3707 37.9056 72.3707 38.2616V55.157C72.3707 55.5131 72.4545 55.77 72.6236 55.9291C72.7926 56.0883 73.0539 56.1679 73.4102 56.1679H74.0556V56.5323H65.5458Z" fill="white"/>
<path d="M74.701 56.5323V56.3633L84.7827 37.5035V37.3066H82.1714C80.8987 37.3066 79.7796 37.5733 78.8156 38.1067C77.8516 38.64 77.0971 39.3367 76.555 40.1968C76.0115 41.0582 75.6748 41.956 75.5435 42.8914L75.4038 43.8743H75.0671L75.9934 36.353H76.1624L76.6123 36.8864H90.5695V37.0553L80.4879 55.9152V56.112H84.0268C85.2814 56.112 86.3851 55.8314 87.3408 55.2701C88.295 54.7088 89.0439 53.9605 89.5873 53.025C90.1308 52.0896 90.4675 51.0703 90.5988 49.966L90.7106 49.0682H91.0753L90.3166 56.5337H74.7024L74.701 56.5323Z" fill="white"/>
<path d="M102.223 56.8688C100.257 56.8688 98.5065 56.4806 96.9711 55.7043C95.4357 54.928 94.2369 53.7818 93.3763 52.2669C92.5143 50.752 92.084 48.9272 92.084 46.7938C92.084 44.6604 92.5199 42.8551 93.3903 41.3207C94.2607 39.7863 95.4874 38.6079 97.0689 37.7841C98.6504 36.9618 100.481 36.5499 102.56 36.5499C104.506 36.5499 106.248 36.9422 107.783 37.7283C109.319 38.5143 110.522 39.6648 111.392 41.1797C112.263 42.6946 112.698 44.5096 112.698 46.6249C112.698 48.7401 112.258 50.5635 111.378 52.098C110.498 53.6324 109.267 54.8108 107.686 55.6345C106.103 56.4583 104.282 56.8688 102.223 56.8688ZM102.307 56.4764C103.355 56.4764 104.235 56.1637 104.946 55.5368C105.657 54.9099 106.205 53.9046 106.589 52.5196C106.972 51.1346 107.164 49.3391 107.164 47.1317C107.164 44.6995 106.986 42.7351 106.631 41.2383C106.275 39.7416 105.751 38.6526 105.058 37.9684C104.365 37.2857 103.494 36.9436 102.446 36.9436C101.399 36.9436 100.518 37.2578 99.8059 37.8833C99.0947 38.5102 98.5471 39.5154 98.1628 40.9004C97.7786 42.2855 97.5872 44.081 97.5872 46.2884C97.5872 48.7206 97.7703 50.685 98.1349 52.1817C98.4995 53.6784 99.0291 54.7689 99.722 55.4516C100.415 56.1344 101.276 56.4764 102.305 56.4764H102.307Z" fill="white"/>
<path d="M113.876 56.5323V56.1679H114.326C115.075 56.1679 115.641 55.8314 116.025 55.157C116.408 54.4841 116.601 53.483 116.601 52.1538V39.7779L115.28 38.1499C115 37.8135 114.737 37.5747 114.494 37.4337C114.251 37.2941 113.998 37.2229 113.735 37.2229H113.482V36.8864H120.531L130.698 49.1227H130.753V40.4509C130.753 39.4037 130.58 38.6079 130.234 38.0648C129.887 37.523 129.312 37.2508 128.507 37.2508H127.748V36.8864H133V37.2508H132.719C132.232 37.2508 131.857 37.5272 131.596 38.0787C131.333 38.6302 131.203 39.4121 131.203 40.4216V56.5309H130.22L117.105 40.3657H117.049V51.8718C117.049 53.2945 117.32 54.3654 117.864 55.0858C118.406 55.8063 119.22 56.1665 120.307 56.1665H120.841V56.5309H113.876V56.5323Z" fill="white"/>
<path d="M21.6889 66.1325V68.2547H21.049V66.1325L18.5929 62.1171H19.2859L21.3913 65.5629L23.4968 62.1171H24.1464L21.6903 66.1325H21.6889Z" fill="white"/>
<path d="M24.6479 65.9482C24.6479 64.58 25.6483 63.6068 26.9993 63.6068C28.3503 63.6068 29.3423 64.58 29.3423 65.9482C29.3423 67.3165 28.3503 68.298 26.9993 68.298C25.6483 68.298 24.6479 67.3165 24.6479 65.9482ZM28.7108 65.9482C28.7108 64.869 27.9829 64.1499 26.9993 64.1499C26.0157 64.1499 25.2794 64.869 25.2794 65.9482C25.2794 67.0275 26.0171 67.7451 26.9993 67.7451C27.9815 67.7451 28.7108 67.0261 28.7108 65.9482Z" fill="white"/>
<path d="M34.8623 63.6431V68.2548H34.2657V67.4129C33.9416 67.9741 33.3451 68.298 32.6074 68.298C31.431 68.298 30.6598 67.6404 30.6598 66.3168V63.6431H31.2829V66.2554C31.2829 67.2369 31.7915 67.7368 32.6688 67.7368C33.6343 67.7368 34.2392 67.1141 34.2392 66.0613V63.6417H34.8623V63.6431Z" fill="white"/>
<path d="M39.0215 63.6082V64.2127C38.9684 64.2127 38.9167 64.2044 38.872 64.2044C37.9066 64.2044 37.3184 64.8187 37.3184 65.9049V68.2547H36.6953V63.6431H37.2919V64.5464C37.5811 63.9321 38.1693 63.6082 39.0201 63.6082H39.0215Z" fill="white"/>
<path d="M44.4019 65.9399L43.3135 66.9395V68.2548H42.6904V61.7485H43.3135V66.1591L46.0687 63.6431H46.8413L44.8671 65.528L47.0257 68.2548H46.2629L44.4033 65.9399H44.4019Z" fill="white"/>
<path d="M52.072 66.1423H48.2117C48.2816 67.1071 49.0193 67.7465 50.028 67.7465C50.5896 67.7465 51.0898 67.5455 51.4405 67.142L51.7912 67.5455C51.379 68.0369 50.7377 68.2994 50.0098 68.2994C48.5708 68.2994 47.5886 67.3179 47.5886 65.9496C47.5886 64.5813 48.5457 63.6082 49.8436 63.6082C51.1415 63.6082 52.0804 64.5646 52.0804 65.9496C52.0804 66.0027 52.072 66.0725 52.072 66.1423ZM48.2117 65.6774H51.4852C51.4055 64.774 50.7475 64.1429 49.845 64.1429C48.9424 64.1429 48.2914 64.774 48.2131 65.6774H48.2117Z" fill="white"/>
<path d="M57.3195 63.6431L55.0115 68.8076C54.6259 69.711 54.1341 70 53.4761 70C53.0458 70 52.6336 69.8604 52.3528 69.5797L52.642 69.1148C52.8697 69.3424 53.1505 69.4652 53.4844 69.4652C53.8966 69.4652 54.1774 69.2726 54.4415 68.6931L54.6427 68.2464L52.5805 63.6431H53.2302L54.9682 67.5622L56.7048 63.6431H57.3195Z" fill="white"/>
<path d="M63.1022 67.9741C62.8563 68.1933 62.4875 68.298 62.1284 68.298C61.2594 68.298 60.7774 67.8066 60.7774 66.9563V64.1681H59.9531V63.6417H60.7774V62.6337H61.4005V63.6417H62.8046V64.1681H61.4005V66.9214C61.4005 67.4645 61.6814 67.7633 62.1997 67.7633C62.454 67.7633 62.7082 67.6837 62.8843 67.5259L63.1036 67.9727L63.1022 67.9741Z" fill="white"/>
<path d="M63.8582 65.9482C63.8582 64.58 64.8585 63.6068 66.2095 63.6068C67.5605 63.6068 68.5525 64.58 68.5525 65.9482C68.5525 67.3165 67.5605 68.298 66.2095 68.298C64.8585 68.298 63.8582 67.3165 63.8582 65.9482ZM67.921 65.9482C67.921 64.869 67.1931 64.1499 66.2095 64.1499C65.2259 64.1499 64.4896 64.869 64.4896 65.9482C64.4896 67.0275 65.2259 67.7451 66.2095 67.7451C67.1931 67.7451 67.921 67.0261 67.921 65.9482Z" fill="white"/>
<path d="M74.7319 67.9741C74.486 68.1933 74.1171 68.298 73.7581 68.298C72.8891 68.298 72.4071 67.8066 72.4071 66.9563V64.1681H71.5828V63.6417H72.4071V62.6337H73.0302V63.6417H74.4343V64.1681H73.0302V66.9214C73.0302 67.4645 73.311 67.7633 73.8293 67.7633C74.0836 67.7633 74.3379 67.6837 74.5139 67.5259L74.7333 67.9727L74.7319 67.9741Z" fill="white"/>
<path d="M80.1988 65.581V68.2547H79.5757V65.6411C79.5757 64.6679 79.0671 64.1681 78.1897 64.1681C77.1978 64.1681 76.5747 64.7824 76.5747 65.8337V68.2534H75.9515V61.7471H76.5747V64.4473C76.9169 63.9126 77.5219 63.6054 78.3029 63.6054C79.4262 63.6054 80.1988 64.2546 80.1988 65.5782V65.581Z" fill="white"/>
<path d="M85.9996 66.1423H82.1393C82.2092 67.1071 82.9469 67.7465 83.9556 67.7465C84.5172 67.7465 85.0174 67.5455 85.3681 67.142L85.7188 67.5455C85.3066 68.0369 84.6653 68.2994 83.9374 68.2994C82.4984 68.2994 81.5162 67.3179 81.5162 65.9496C81.5162 64.5813 82.4733 63.6082 83.7712 63.6082C85.0691 63.6082 86.008 64.5646 86.008 65.9496C86.008 66.0027 85.9996 66.0725 85.9996 66.1423ZM82.1393 65.6774H85.4128C85.3332 64.774 84.6751 64.1429 83.7726 64.1429C82.87 64.1429 82.219 64.774 82.1407 65.6774H82.1393Z" fill="white"/>
<path d="M96.5297 63.6431L94.7833 68.2547H94.1951L92.7379 64.4752L91.2821 68.2547H90.6939L88.9559 63.6431H89.5525L90.9999 67.5622L92.4823 63.6431H93.0174L94.4913 67.5622L95.9569 63.6431H96.5269H96.5297Z" fill="white"/>
<path d="M97.0928 65.9482C97.0928 64.58 98.0931 63.6068 99.4441 63.6068C100.795 63.6068 101.787 64.58 101.787 65.9482C101.787 67.3165 100.795 68.298 99.4441 68.298C98.0931 68.298 97.0928 67.3165 97.0928 65.9482ZM101.156 65.9482C101.156 64.869 100.428 64.1499 99.4441 64.1499C98.4606 64.1499 97.7243 64.869 97.7243 65.9482C97.7243 67.0275 98.462 67.7451 99.4441 67.7451C100.426 67.7451 101.156 67.0261 101.156 65.9482Z" fill="white"/>
<path d="M105.473 63.6082V64.2127C105.42 64.2127 105.368 64.2044 105.323 64.2044C104.358 64.2044 103.771 64.8187 103.771 65.9049V68.2547H103.148V63.6431H103.744V64.5464C104.034 63.9321 104.622 63.6082 105.473 63.6082Z" fill="white"/>
<path d="M106.755 61.7485H107.378V68.2548H106.755V61.7485Z" fill="white"/>
<path d="M113.415 61.7485V68.2548H112.819V67.343C112.441 67.9657 111.802 68.298 111.037 68.298C109.721 68.298 108.739 67.343 108.739 65.9482C108.739 64.5534 109.721 63.6068 111.037 63.6068C111.775 63.6068 112.407 63.9224 112.792 64.5185V61.7485H113.415ZM112.801 65.9482C112.801 64.869 112.064 64.1499 111.089 64.1499C110.114 64.1499 109.369 64.869 109.369 65.9482C109.369 67.0275 110.107 67.7451 111.089 67.7451C112.071 67.7451 112.801 67.0261 112.801 65.9482Z" fill="white"/>
<path d="M73.8711 8.9708L75.2487 10.2232C76.0185 10.9227 76.0506 12.1541 75.3171 12.9597L71.3437 17.3284C70.6116 18.134 69.3822 18.2192 68.611 17.5197L67.5771 16.5815L64.9016 19.5219C68.4838 20.9376 72.7185 20.0999 75.4624 17.0827C78.8504 13.359 78.7275 7.68909 75.3031 4.10365L77.6447 1.53046L76.0003 0.0365295L73.5554 2.72421C73.5554 2.72421 72.4237 4.10645 72.5355 5.87403C72.6472 7.64162 73.8697 8.9708 73.8697 8.9708H73.8711Z" fill="white"/>
<path d="M68.4168 20.227C67.2167 20.227 66.0221 20.0008 64.8891 19.5526C64.8779 19.5484 64.8709 19.5386 64.8681 19.5275C64.8653 19.5163 64.8681 19.5051 64.8765 19.4967L67.552 16.5563C67.5646 16.5424 67.5869 16.541 67.6009 16.5536L68.6347 17.4918C69.3934 18.1801 70.5963 18.0964 71.3186 17.3019L75.292 12.9332C75.6399 12.5507 75.8243 12.0592 75.8117 11.5496C75.7992 11.0414 75.591 10.5778 75.2249 10.2455L73.8474 8.99454C73.8474 8.99454 73.846 8.99454 73.8446 8.99175C73.832 8.97779 72.6123 7.63185 72.5006 5.87264C72.3888 4.11204 73.5177 2.71165 73.5288 2.69769L75.9766 0.011406C75.9892 -0.00255595 76.0115 -0.00395215 76.0255 0.00861363L77.6699 1.50255C77.6699 1.50255 77.6811 1.5179 77.6811 1.52628C77.6811 1.53466 77.6783 1.54443 77.6727 1.55141L75.3535 4.10087C77.0077 5.84472 77.9381 8.1303 77.9745 10.5387C78.0108 12.9709 77.1292 15.3026 75.4904 17.1037C74.1576 18.5697 72.4335 19.5693 70.5055 19.9966C69.8139 20.1502 69.114 20.2256 68.4168 20.2256V20.227ZM64.9631 19.5065C68.6096 20.9251 72.8135 19.9435 75.4387 17.0576C78.7736 13.3912 78.7038 7.71144 75.2794 4.126C75.2669 4.11343 75.2669 4.09249 75.2794 4.07853L77.5972 1.53047L76.0045 0.0840083L73.5833 2.74656C73.5736 2.75912 72.4628 4.13857 72.5718 5.87125C72.6794 7.58438 73.8558 8.901 73.8963 8.94567L75.2725 10.1967C75.6525 10.5415 75.869 11.0218 75.8816 11.551C75.8942 12.0787 75.7042 12.587 75.3437 12.9835L71.3703 17.3522C70.6228 18.1745 69.3752 18.2611 68.5886 17.5463L67.5813 16.6317L64.9645 19.5093L64.9631 19.5065Z" fill="white"/>
<path d="M61.6883 21.4863L63.8287 19.1337C63.8287 19.1337 64.9604 17.7515 64.8486 15.9839C64.7368 14.2163 63.5143 12.8872 63.5143 12.8872L61.9985 11.5105C61.2287 10.811 61.1965 9.57956 61.93 8.77396L65.9034 4.40526C66.6355 3.59965 67.865 3.51448 68.6362 4.21398L69.807 5.27788L72.6557 2.14621C68.9324 0.290661 64.2884 1.02925 61.3502 4.25865C57.8071 8.15405 58.0935 14.1814 61.9915 17.7222L59.9782 19.9352L54.9263 25.5144L56.6349 27.0669L61.6869 21.4877L61.6883 21.4863Z" fill="white"/>
<path d="M56.6363 27.1004C56.6279 27.1004 56.6195 27.0977 56.6125 27.0907L54.9039 25.5381C54.8899 25.5255 54.8885 25.5032 54.9011 25.4892L59.9531 19.91L61.9425 17.7236C60.0662 16.0077 58.9667 13.6648 58.8465 11.1238C58.725 8.5715 59.6052 6.12537 61.325 4.23491C64.1905 1.08509 68.8555 0.213865 72.671 2.11549C72.6808 2.12107 72.6878 2.12945 72.6892 2.14062C72.6906 2.15179 72.6892 2.16296 72.6808 2.16994L69.8321 5.30161C69.8195 5.31557 69.7971 5.31697 69.7832 5.3044L68.6124 4.2405C68.2463 3.9082 67.7657 3.74625 67.2572 3.78115C66.7486 3.81745 66.2764 4.04782 65.9285 4.43038L61.9551 8.79908C61.2342 9.59212 61.2635 10.797 62.0222 11.4868L63.5381 12.8634C63.552 12.8788 64.7731 14.2247 64.8835 15.9839C64.9952 17.7445 63.8664 19.1449 63.8552 19.1589L61.7148 21.5129L56.6628 27.0921C56.6628 27.0921 56.6475 27.1032 56.6391 27.1032H56.6377L56.6363 27.1004ZM54.9765 25.5102L56.6335 27.0153L61.6617 21.4626L63.8021 19.11C63.8119 19.0974 64.9226 17.718 64.8136 15.9853C64.7046 14.2512 63.5003 12.9221 63.4878 12.9095L61.9747 11.5342C61.1881 10.8194 61.156 9.56979 61.9034 8.74882L65.8768 4.38012C66.2373 3.9836 66.7263 3.74485 67.253 3.70855C67.7811 3.67085 68.2799 3.84119 68.6599 4.18605L69.8055 5.22621L72.5998 2.15458C68.8192 0.293449 64.2115 1.16468 61.3781 4.27959C59.6708 6.15608 58.7962 8.58547 58.9178 11.1196C59.0393 13.6537 60.1389 15.9881 62.0166 17.6943C62.0236 17.6998 62.0278 17.7096 62.0278 17.718C62.0278 17.7264 62.025 17.7361 62.0194 17.7431L60.0061 19.9547L54.9779 25.5074L54.9765 25.5102Z" fill="white"/>
<path d="M61.6832 26.5243L63.2366 24.8165L61.5276 23.2641L59.9742 24.972L61.6832 26.5243Z" fill="white"/>
<path d="M61.6799 26.5531C61.6715 26.5531 61.6631 26.5503 61.6561 26.5434L59.9474 24.9908C59.9335 24.9782 59.9321 24.9559 59.9447 24.9419L61.4982 23.2344C61.4982 23.2344 61.5136 23.2232 61.522 23.2232C61.5318 23.2232 61.5402 23.226 61.5471 23.233L63.2558 24.7856C63.2698 24.7981 63.2712 24.8205 63.2586 24.8344L61.705 26.542C61.705 26.542 61.6897 26.5531 61.6813 26.5531H61.6799ZM60.0201 24.9629L61.6771 26.468L63.1832 24.8121L61.5262 23.307L60.0201 24.9629Z" fill="white"/>
<path d="M60.9577 30.9946L62.5111 29.2867L58.9712 26.0712L57.4178 27.779L60.9577 30.9946Z" fill="white"/>
<path d="M60.9561 31.0252C60.9478 31.0252 60.9394 31.0224 60.9324 31.0154L57.3935 27.7999C57.3795 27.7874 57.3781 27.765 57.3907 27.7511L58.9443 26.0435C58.9443 26.0435 58.9597 26.0323 58.968 26.0323C58.9778 26.0323 58.9862 26.0351 58.9932 26.0421L62.5321 29.2576C62.5461 29.2701 62.5475 29.2925 62.5349 29.3064L60.9813 31.014C60.9813 31.014 60.9659 31.0252 60.9575 31.0252H60.9561ZM57.4661 27.772L60.9533 30.94L62.4594 29.2841L58.9722 26.1161L57.4661 27.772Z" fill="white"/>
</svg>
