<svg width="66" height="72" viewBox="0 0 66 72" fill="none" xmlns="http://www.w3.org/2000/svg">
<path d="M34.5781 2.54148C33.6517 1.81951 32.3675 1.81951 31.4411 2.54148C25.9209 6.84135 7.4627 21.236 3.00948 24.6606C2.38335 25.1462 2.01278 25.8937 2.01278 26.686L2 69.18H64V26.6987C64 25.9129 63.6358 25.1653 63.0161 24.6798C63.0161 24.6798 40.75 7.33971 34.5781 2.53509V2.54148Z" stroke="white" stroke-width="4" stroke-linecap="round" stroke-linejoin="round"/>
<path d="M48.0077 28.6406H18.0044C16.5929 28.6406 15.4487 29.7848 15.4487 31.1963V60.0687C15.4487 61.4801 16.5929 62.6243 18.0044 62.6243H48.0077C49.4191 62.6243 50.5633 61.4801 50.5633 60.0687V31.1963C50.5633 29.7848 49.4191 28.6406 48.0077 28.6406Z" stroke="white" stroke-width="4" stroke-linecap="round" stroke-linejoin="round"/>
<path d="M38.2582 17.7795H27.7545C26.3677 17.7795 25.2435 18.9023 25.2435 20.2873C25.2435 21.6722 26.3677 22.795 27.7545 22.795H38.2582C39.6449 22.795 40.7691 21.6722 40.7691 20.2873C40.7691 18.9023 39.6449 17.7795 38.2582 17.7795Z" stroke="white" stroke-width="4" stroke-linecap="round" stroke-linejoin="round"/>
<path d="M23.3208 46.9134L30.1316 53.8201L46.3216 40.1985" stroke="white" stroke-width="4" stroke-linecap="round" stroke-linejoin="round"/>
</svg>
