<svg width="27" height="25" viewBox="0 0 27 25" fill="none" xmlns="http://www.w3.org/2000/svg">
<g clip-path="url(#clip0_411_3720)">
<path d="M10.5541 20.5044C12.7149 20.5044 14.4666 16.127 14.4666 10.7271C14.4666 5.32729 12.7149 0.94986 10.5541 0.94986C8.39328 0.94986 6.6416 5.32729 6.6416 10.7271C6.6416 16.127 8.39328 20.5044 10.5541 20.5044Z" stroke="#1E3040" stroke-linecap="round" stroke-linejoin="round"/>
<path d="M1.53076 7.51489H18.053" stroke="#1E3040" stroke-linecap="round" stroke-linejoin="round"/>
<path d="M1.53076 14.1007H15.0332" stroke="#1E3040" stroke-linecap="round" stroke-linejoin="round"/>
<path d="M18.5934 5.39076C16.8897 2.71476 13.9362 0.94986 10.5797 0.94986C5.28996 0.94986 1 5.32828 1 10.7271C1 16.126 5.28996 20.5044 10.5797 20.5044C12.8548 20.5044 14.9462 19.6922 16.5887 18.3334" stroke="#1E3040" stroke-linecap="round" stroke-linejoin="round"/>
<path d="M21.6999 7.51487C22.8493 7.51487 23.7811 6.56386 23.7811 5.39073C23.7811 4.21761 22.8493 3.2666 21.6999 3.2666C20.5504 3.2666 19.6187 4.21761 19.6187 5.39073C19.6187 6.56386 20.5504 7.51487 21.6999 7.51487Z" stroke="#1E3040" stroke-linecap="round" stroke-linejoin="round"/>
<path d="M24.1074 9.1236H18.9299C17.8893 9.1236 17.0425 9.99303 17.0425 11.0499V16.3342C17.0425 17.3963 17.8944 18.2605 18.9299 18.2605H19.2359C19.1951 18.3698 19.1747 18.4844 19.1747 18.6093V23.0033C19.1747 23.576 19.6338 24.0446 20.1949 24.0446H22.8423C23.4035 24.0446 23.8625 23.576 23.8625 23.0033V18.6093C23.8625 18.4896 23.837 18.3698 23.8013 18.2605H24.1125C25.1531 18.2605 25.9999 17.3911 25.9999 16.3342V11.0499C25.9999 9.98783 25.148 9.1236 24.1125 9.1236H24.1074Z" stroke="#1E3040" stroke-linecap="round" stroke-linejoin="round"/>
</g>
<defs>
<clipPath id="clip0_411_3720">
<rect width="27" height="25" fill="white"/>
</clipPath>
</defs>
</svg>
