<svg width="22" height="23" viewBox="0 0 22 23" fill="none" xmlns="http://www.w3.org/2000/svg">
<g clip-path="url(#clip0_411_3729)">
<path d="M8.90006 22C10.8365 22 12.4063 18.4008 12.4063 13.9609C12.4063 9.52109 10.8365 5.92188 8.90006 5.92188C6.96361 5.92188 5.3938 9.52109 5.3938 13.9609C5.3938 18.4008 6.96361 22 8.90006 22Z" stroke="#1E3040" stroke-linecap="round" stroke-linejoin="round"/>
<path d="M1.40967 11.3023H13.586" stroke="#1E3040" stroke-linecap="round" stroke-linejoin="round"/>
<path d="M1.40967 16.628H16.4318" stroke="#1E3040" stroke-linecap="round" stroke-linejoin="round"/>
<path d="M11.621 6.41406C10.7735 6.09856 9.85954 5.92188 8.89988 5.92188C4.51705 5.92188 0.960938 9.52284 0.960938 13.9609C0.960938 18.399 4.51705 22 8.89988 22C13.0459 22 16.4483 18.7819 16.8097 14.6803" stroke="#1E3040" stroke-linecap="round" stroke-linejoin="round"/>
<path d="M16.839 7.3101C18.0366 7.3101 19.0075 6.32696 19.0075 5.11419C19.0075 3.90142 18.0366 2.91827 16.839 2.91827C15.6413 2.91827 14.6704 3.90142 14.6704 5.11419C14.6704 6.32696 15.6413 7.3101 16.839 7.3101Z" stroke="#1E3040" stroke-linecap="round" stroke-linejoin="round"/>
<path d="M20.5903 7.16286C20.877 6.58654 21.039 5.9387 21.039 5.253C21.039 2.90565 19.1571 1 16.839 1C14.5208 1 12.6389 2.90565 12.6389 5.253C12.6389 5.9387 12.8051 6.58654 13.0876 7.16286L13.1042 7.1881C13.179 7.33113 13.2579 7.47416 13.3452 7.60877L16.8431 13.7127L20.3411 7.60877C20.4283 7.47416 20.5072 7.33113 20.582 7.1881L20.5986 7.16286H20.5903Z" stroke="#1E3040" stroke-linecap="round" stroke-linejoin="round"/>
</g>
<defs>
<clipPath id="clip0_411_3729">
<rect width="22" height="23" fill="white"/>
</clipPath>
</defs>
</svg>
